<mxfile host="app.diagrams.net" modified="2024-07-16T03:02:11.470Z" agent="Mozilla/5.0 (Windows NT 10.0; Win64; x64) AppleWebKit/537.36 (KHTML, like Gecko) Chrome/126.0.0.0 Safari/537.36" version="24.6.5" etag="zHCd7zKVCdFQwExi1oLd" type="github">
  <diagram name="PÃ¡gina-1" id="_JozszdOQ5H9nEkMJRZu">
    <mxGraphModel>
      <root>
        <mxCell id="0" />
        <mxCell id="1" parent="0" />
      </root>
    </mxGraphModel>
  </diagram>
</mxfile>
